Coordinates
version=1
nRows=8
nColumns=36
inDegrees=yes

Units are S.I. units (second, meters, Newtons, ...)
If the header above contains a line with 'inDegrees', this indicates whether rotational values are in degrees (yes) or radians (no).

endheader
time	pelvis_tilt	pelvis_list	pelvis_rotation	pelvis_tx	pelvis_ty	pelvis_tz	hip_flexion_r	hip_adduction_r	hip_rotation_r	knee_angle_r	knee_angle_r_beta	ankle_angle_r	subtalar_angle_r	mtp_angle_r	hip_flexion_l	hip_adduction_l	hip_rotation_l	knee_angle_l	knee_angle_l_beta	ankle_angle_l	subtalar_angle_l	mtp_angle_l	lumbar_extension	lumbar_bending	lumbar_rotation	arm_flex_r	arm_add_r	arm_rot_r	elbow_flex_r	pro_sup_r	arm_flex_l	arm_add_l	arm_rot_l	elbow_flex_l	pro_sup_l
      1.26666670	      0.78341215	     -0.39221402	     -3.13247069	     -0.05331874	      1.20601697	      0.09141918	     -5.39223608	      1.82752263	    -13.17285394	      5.49310604	      0.09587279	      3.74544483	     -9.71607257	     -7.49999987	     -5.08488570	      2.34940055	     -9.09897228	      3.67327577	      0.06411076	     11.02881899	      2.52465309	     -7.49999987	     -7.36112797	     -0.76399615	      0.42544786	     -5.93147937	     -1.81116192	    -11.36480029	     30.04724657	     86.73083192	     -4.91244612	     -6.52507671	     -2.01887246	     36.99631787	     90.86362910
      1.28333330	      0.82801210	     -0.37630691	     -3.07097628	     -0.05276084	      1.20667501	      0.09169274	     -5.46131425	      1.84964588	    -13.06027963	      5.46150918	      0.09532132	      3.97213938	     -9.71313499	     -7.49999987	     -4.98432869	      2.35178893	     -9.06773456	      3.91726441	      0.06836916	     11.15414520	      2.40162964	     -7.49999987	     -7.55540480	     -0.78037911	      0.25216316	     -5.91613423	     -1.81678392	    -11.31881233	     30.04007676	     85.49765027	     -5.13243415	     -6.60395417	     -2.27108156	     36.70425469	     89.53655570
      1.30000000	      0.75588214	     -0.34412667	     -3.01946366	     -0.05251790	      1.20676345	      0.09181952	     -5.37722089	      1.85470152	    -12.96065749	      5.49619696	      0.09592673	      4.33350515	     -9.50176540	     -7.49999987	     -4.84321774	      2.32706961	     -8.93342696	      4.11510478	      0.07182213	     11.28306144	      2.34269493	     -7.49999987	     -7.58861716	     -0.80144386	      0.05723874	     -5.87193931	     -1.81769418	    -11.33953824	     30.03535431	     85.20942762	     -5.39969765	     -6.71871226	     -2.53672155	     36.33984004	     89.13492284
      1.31666670	      0.65590876	     -0.34459445	     -3.19219743	     -0.05240933	      1.20649277	      0.09183903	     -5.22537962	      1.83818006	    -12.86226449	      5.57919495	      0.09737532	      4.61912861	     -9.44924603	     -7.49999987	     -4.67078949	      2.32945778	     -8.91390458	      4.33054503	      0.07558227	     11.53264498	      2.17067909	     -7.49999987	     -7.78535138	     -0.78500735	      0.01222310	     -5.79672642	     -1.84852887	    -11.34656987	     30.09473462	     84.89700779	     -5.83807198	     -6.82147613	     -2.90047957	     36.07619915	     88.69988986
      1.33333330	      0.45129366	     -0.30026329	     -3.43312358	     -0.05212834	      1.20645941	      0.09217499	     -4.93286135	      1.75496252	    -12.84430255	      5.74818412	      0.10032474	      4.93964549	     -9.12101955	     -7.49999987	     -4.43653800	      2.34434206	     -8.98289823	      4.55940027	      0.07957655	     11.76524044	      2.17421680	     -7.49999987	     -7.75856574	     -0.88800534	     -0.36652681	     -5.36562111	     -1.93697040	    -11.06863688	     29.36367563	     87.46692151	     -6.62778645	     -6.55184399	     -5.44726262	     36.07228381	     90.95996352
      1.35000000	      0.27033852	     -0.25523623	     -3.70420625	     -0.05249293	      1.20150143	      0.09214097	     -4.64103403	      1.66482981	    -12.66787118	      5.92024507	      0.10332777	      5.26356924	     -9.16660883	     -7.49999987	     -4.10032645	      2.40475229	     -8.89892939	      4.93727090	      0.08617163	     12.20287365	      1.82185917	     -7.49999987	     -7.83833722	     -0.95011366	     -0.27536876	     -5.35625297	     -1.98882398	    -11.14305961	     29.16527256	     86.15098243	     -7.07808801	     -6.58707454	     -5.56034681	     35.64888413	     89.58186837
      1.36666670	      0.20182557	     -0.19266363	     -3.90039083	     -0.05261739	      1.20220770	      0.09247731	     -4.45728600	      1.58807395	    -12.39498250	      6.08132045	      0.10613906	      5.68758994	     -9.17253574	     -7.49999987	     -3.84763297	      2.47063960	     -8.69168931	      5.35064013	      0.09338629	     12.44886975	      1.35533009	     -7.49999987	     -8.12860334	     -1.05723272	     -0.38971298	     -5.41336308	     -2.02624782	    -11.12182127	     29.48824113	     84.17698691	     -7.62611286	     -6.69338946	     -5.73992475	     35.64942873	     87.45829517
      1.38333330	      0.09692379	     -0.08857662	     -4.17718756	     -0.05724060	      1.20930262	      0.09493336	     -4.12246724	      1.51541392	    -12.04273338	      6.20067870	      0.10822226	      5.80328679	     -9.08519187	     -7.49999987	     -3.41570735	      2.52483181	     -8.69834968	      5.92440896	      0.10340044	     12.49532043	      1.13793410	     -7.49999987	     -8.50321337	     -1.26840342	     -0.34522108	     -5.43107763	     -2.06263498	    -11.15133290	     29.36588297	     84.20768444	     -7.91697165	     -6.94876014	     -5.82660234	     35.37950958	     87.48144718
